<svg width="42" height="42" viewBox="0 0 42 42" fill="none" xmlns="http://www.w3.org/2000/svg">
<rect width="42" height="42" fill="#1E1E1E"/>
<g id="Homepage" clip-path="url(#clip0_0_1)">
<rect width="1440" height="2866" transform="translate(-1084 -2785)" fill="white"/>
<g id="Frame 480958515">
<rect x="-1084.5" y="-42.5" width="1441" height="124" fill="#FFFBEF"/>
<g id="Frame 480958507">
<g id="Group 11739">
<circle id="Ellipse 46" cx="21" cy="21" r="21" fill="#D4AF37" fill-opacity="0.2"/>
<path id="Vector" d="M18.1448 32.6665V21.7178H15.1666V17.7757H18.1448V14.4087C18.1448 11.7629 19.904 9.33313 23.9577 9.33313C25.599 9.33313 26.8127 9.48608 26.8127 9.48608L26.717 13.1673C26.717 13.1673 25.4793 13.1556 24.1286 13.1556C22.6668 13.1556 22.4326 13.8104 22.4326 14.8973V17.7757H26.8332L26.6418 21.7178H22.4326V32.6665H18.1448Z" fill="#D4AF37"/>
</g>
</g>
<rect x="-1084.5" y="-42.5" width="1441" height="124" stroke="#382B00"/>
</g>
</g>
<defs>
<clipPath id="clip0_0_1">
<rect width="1440" height="2866" fill="white" transform="translate(-1084 -2785)"/>
</clipPath>
</defs>
</svg>
